<?xml version="1.0" encoding="utf-8"?>

<!DOCTYPE svg PUBLIC "-//W3C//DTD SVG 1.1//EN" "http://www.w3.org/Graphics/SVG/1.1/DTD/svg11.dtd">
<!-- Uploaded to: SVG Repo, www.svgrepo.com, Generator: SVG Repo Mixer Tools -->
<svg height="800px" width="800px" version="1.1" id="_x32_" xmlns="http://www.w3.org/2000/svg" xmlns:xlink="http://www.w3.org/1999/xlink" 
	 viewBox="0 0 512 512"  xml:space="preserve">
<style type="text/css">
	.st0{fill:#000000;}
</style>
<g>
	<path class="st0" d="M444.28,140.387c-44.043-85.334-126.065-66.065-126.065-93.592s0-28.064,0-28.064
		C318.215,8.387,309.828,0,299.484,0h-86.969c-10.343,0-18.73,8.387-18.73,18.732c0,0,0,0.537,0,28.064
		s-82.022,8.258-126.065,93.592c-40.655,78.774,0,173.419-60.559,311.054l79.828,22.022c22.732-57.247,35.785-134.882,41.29-209.204
		c0,0,1.624,148.172,0,247.742h255.442c-1.624-99.57,0-247.742,0-247.742c5.506,74.323,18.559,151.957,41.29,209.204l79.828-22.022
		C444.28,313.806,484.936,219.161,444.28,140.387z"/>
</g>
</svg>